<svg id="Layer_1" data-name="Layer 1" xmlns="http://www.w3.org/2000/svg" viewBox="0 0 313 309"><defs><style>.cls-1{fill:#ed1c24;}.cls-1,.cls-2,.cls-3,.cls-4{stroke:#000;stroke-miterlimit:10;}.cls-1,.cls-2,.cls-3{opacity:0.49;}.cls-2{fill:#d61fea;}.cls-3{fill:#241fea;}.cls-4{fill:#25a50a;}</style></defs><rect class="cls-1" x="141.5" y="0.5" width="141" height="308"/><rect class="cls-2" x="0.5" y="141.5" width="312" height="87"/><rect class="cls-3" x="0.5" y="0.5" width="141" height="141"/><path class="cls-4" d="M64.5,122.5h32v32h-8V151a2.5,2.5,0,0,0-1.85-4.48,2.525,2.525,0,0,0-2.13,2.17A2.5,2.5,0,0,0,85.5,151v3.5h-10V158a2.5,2.5,0,1,1-3,0v-3.5h-8Z" transform="translate(-9 -13)"/><path class="cls-4" d="M118.5,100.5v-32h32v8H147a2.5,2.5,0,0,0-4.48,1.85,2.525,2.525,0,0,0,2.17,2.13A2.5,2.5,0,0,0,147,79.5h3.5v10H154a2.5,2.5,0,1,1,0,3h-3.5v8Z" transform="translate(-9 -13)"/><path class="cls-4" d="M96.5,186.5h-32v-32h8V158a2.5,2.5,0,0,0,1.85,4.48,2.525,2.525,0,0,0,2.13-2.17A2.5,2.5,0,0,0,75.5,158v-3.5h10V151a2.5,2.5,0,1,1,3,0v3.5h8Z" transform="translate(-9 -13)"/><path class="cls-4" d="M182.5,68.5v32h-32v-8H154a2.5,2.5,0,0,0,4.48-1.85,2.525,2.525,0,0,0-2.17-2.13,2.5,2.5,0,0,0-2.31.98h-3.5v-10H147a2.5,2.5,0,1,1,0-3h3.5v-8Z" transform="translate(-9 -13)"/></svg>