<svg xmlns="http://www.w3.org/2000/svg" viewBox="0 0 337 147"><defs><style>.cls-1{fill:#603813;stroke-width:2px;}.cls-1,.cls-2{stroke:#000;stroke-miterlimit:10;}.cls-2{fill:#25a50a;}</style></defs><g id="Layer_2" data-name="Layer 2"><g id="Layer_1-2" data-name="Layer 1"><rect class="cls-1" x="8" y="106" width="40" height="40"/><rect class="cls-1" x="48" y="106" width="40" height="40"/><rect class="cls-1" x="88" y="106" width="40" height="40"/><rect class="cls-1" x="128" y="106" width="40" height="40"/><rect class="cls-1" x="168" y="106" width="40" height="40"/><rect class="cls-1" x="208" y="106" width="40" height="40"/><rect class="cls-1" x="248" y="106" width="40" height="40"/><rect class="cls-1" x="288" y="106" width="40" height="40"/><path class="cls-2" d="M40.5,57.5v32H8.5v-8H12a2.5,2.5,0,0,0,4.48-1.85,2.525,2.525,0,0,0-2.17-2.13A2.5,2.5,0,0,0,12,78.5H8.5v-10H5a2.5,2.5,0,1,1,0-3H8.5v-8Z"/><path class="cls-2" d="M184.5,40.5h-32V8.5h8V12a2.5,2.5,0,0,0,1.85,4.48,2.525,2.525,0,0,0,2.13-2.17A2.5,2.5,0,0,0,163.5,12V8.5h10V5a2.5,2.5,0,1,1,3,0V8.5h8Z"/><path class="cls-2" d="M296.5,89.5v-32h32v8H325a2.5,2.5,0,0,0-4.48,1.85,2.525,2.525,0,0,0,2.17,2.13A2.5,2.5,0,0,0,325,68.5h3.5v10H332a2.5,2.5,0,1,1,0,3h-3.5v8Z"/></g></g></svg>