<svg id="Layer_1" data-name="Layer 1" xmlns="http://www.w3.org/2000/svg" viewBox="0 0 657 147"><defs><style>.cls-1{fill:#603813;stroke-width:2px;}.cls-1,.cls-2{stroke:#000;stroke-miterlimit:10;}.cls-2{fill:#25a50a;}</style></defs><rect class="cls-1" x="8" y="106" width="40" height="40"/><rect class="cls-1" x="48" y="106" width="40" height="40"/><rect class="cls-1" x="88" y="106" width="40" height="40"/><rect class="cls-1" x="128" y="106" width="40" height="40"/><rect class="cls-1" x="168" y="106" width="40" height="40"/><rect class="cls-1" x="208" y="106" width="40" height="40"/><rect class="cls-1" x="248" y="106" width="40" height="40"/><rect class="cls-1" x="288" y="106" width="40" height="40"/><path class="cls-2" d="M41.5,58.5v32H9.5v-8H13a2.5,2.5,0,0,0,4.48-1.85,2.525,2.525,0,0,0-2.17-2.13A2.5,2.5,0,0,0,13,79.5H9.5v-10H6a2.5,2.5,0,1,1,0-3H9.5v-8Z" transform="translate(-1 -1)"/><path class="cls-2" d="M185.5,41.5h-32V9.5h8V13a2.5,2.5,0,0,0,1.85,4.48,2.525,2.525,0,0,0,2.13-2.17A2.5,2.5,0,0,0,164.5,13V9.5h10V6a2.5,2.5,0,1,1,3,0V9.5h8Z" transform="translate(-1 -1)"/><path class="cls-2" d="M297.5,90.5v-32h32v8H326a2.5,2.5,0,0,0-4.48,1.85,2.525,2.525,0,0,0,2.17,2.13A2.5,2.5,0,0,0,326,69.5h3.5v10H333a2.5,2.5,0,1,1,0,3h-3.5v8Z" transform="translate(-1 -1)"/><rect class="cls-1" x="328" y="106" width="40" height="40"/><rect class="cls-1" x="368" y="106" width="40" height="40"/><rect class="cls-1" x="408" y="106" width="40" height="40"/><rect class="cls-1" x="448" y="106" width="40" height="40"/><rect class="cls-1" x="488" y="106" width="40" height="40"/><rect class="cls-1" x="528" y="106" width="40" height="40"/><rect class="cls-1" x="568" y="106" width="40" height="40"/><rect class="cls-1" x="608" y="106" width="40" height="40"/><path class="cls-2" d="M361.5,58.5v32h-32v-8H333a2.5,2.5,0,0,0,4.48-1.85,2.525,2.525,0,0,0-2.17-2.13,2.5,2.5,0,0,0-2.31.98h-3.5v-10H326a2.5,2.5,0,1,1,0-3h3.5v-8Z" transform="translate(-1 -1)"/><path class="cls-2" d="M505.5,41.5h-32V9.5h8V13a2.5,2.5,0,0,0,1.85,4.48,2.525,2.525,0,0,0,2.13-2.17A2.5,2.5,0,0,0,484.5,13V9.5h10V6a2.5,2.5,0,1,1,3,0V9.5h8Z" transform="translate(-1 -1)"/><path class="cls-2" d="M617.5,90.5v-32h32v8H646a2.5,2.5,0,0,0-4.48,1.85,2.525,2.525,0,0,0,2.17,2.13A2.5,2.5,0,0,0,646,69.5h3.5v10H653a2.5,2.5,0,1,1,0,3h-3.5v8Z" transform="translate(-1 -1)"/></svg>